<svg width="26" height="24" viewBox="0 0 26 24" fill="none" xmlns="http://www.w3.org/2000/svg">
<path d="M9 0.546875H17C17.1567 0.546974 17.311 0.586178 17.4492 0.660156C17.5872 0.734072 17.7051 0.840512 17.792 0.970703L19.4961 3.52637L19.5098 3.54688H23C23.7832 3.54688 24.5341 3.85829 25.0879 4.41211C25.6417 4.96593 25.9531 5.71678 25.9531 6.5V20.5C25.9531 21.2832 25.6417 22.0341 25.0879 22.5879C24.5341 23.1417 23.7832 23.4531 23 23.4531H3C2.21678 23.4531 1.46593 23.1417 0.912109 22.5879C0.358291 22.0341 0.046875 21.2832 0.046875 20.5V6.5C0.046875 5.71678 0.358291 4.96593 0.912109 4.41211C1.46593 3.85829 2.21678 3.54688 3 3.54688H6.48926L6.50293 3.52637L8.20801 0.970703C8.29495 0.840513 8.41278 0.734072 8.55078 0.660156C8.65435 0.604711 8.7669 0.56814 8.88281 0.553711L9 0.546875ZM13 8.45312C12.1007 8.45312 11.2214 8.72011 10.4736 9.21973C9.72607 9.71932 9.14292 10.4291 8.79883 11.2598C8.45474 12.0905 8.36471 13.0048 8.54004 13.8867C8.71548 14.7687 9.14926 15.579 9.78516 16.2148C10.421 16.8507 11.2313 17.2845 12.1133 17.46C12.9952 17.6353 13.9095 17.5453 14.7402 17.2012C15.5709 16.8571 16.2807 16.2739 16.7803 15.5264C17.2799 14.7786 17.5469 13.8993 17.5469 13C17.5469 11.7941 17.0675 10.6379 16.2148 9.78516C15.3621 8.93245 14.2059 8.45312 13 8.45312Z" fill="url(#paint0_radial_40000975_3955)" stroke="url(#paint1_linear_40000975_3955)" stroke-width="0.09375"/>
<defs>
<radialGradient id="paint0_radial_40000975_3955" cx="0" cy="0" r="1" gradientUnits="userSpaceOnUse" gradientTransform="translate(13 -0.595239) rotate(90) scale(39.9762 45.1905)">
<stop stop-color="white"/>
<stop offset="1" stop-color="white" stop-opacity="0"/>
</radialGradient>
<linearGradient id="paint1_linear_40000975_3955" x1="13" y1="0.5" x2="13" y2="23.5" gradientUnits="userSpaceOnUse">
<stop offset="0.735221" stop-color="white" stop-opacity="0"/>
<stop offset="1" stop-color="white" stop-opacity="0.8"/>
</linearGradient>
</defs>
</svg>
