<svg width="32" height="33" viewBox="0 0 32 33" fill="none" xmlns="http://www.w3.org/2000/svg">
<path d="M6 7.21387H26C26.663 7.21387 27.2987 7.47745 27.7676 7.94629C28.2364 8.41513 28.5 9.05083 28.5 9.71387V23.7139L28.4873 23.9609C28.4305 24.5332 28.1778 25.0712 27.7676 25.4814C27.2987 25.9503 26.663 26.2139 26 26.2139H6C5.33696 26.2139 4.70126 25.9503 4.23242 25.4814C3.76358 25.0126 3.5 24.3769 3.5 23.7139V9.71387C3.5 9.05083 3.76358 8.41513 4.23242 7.94629C4.70126 7.47745 5.33696 7.21387 6 7.21387ZM4.5 15.2139H12C12.1326 15.2139 12.2597 15.2666 12.3535 15.3604C12.4473 15.4541 12.5 15.5813 12.5 15.7139C12.5 16.6421 12.869 17.5321 13.5254 18.1885C14.1407 18.8038 14.9612 19.167 15.8262 19.21L16 19.2139C16.9283 19.2139 17.8182 18.8449 18.4746 18.1885C19.131 17.5321 19.5 16.6421 19.5 15.7139C19.5 15.5813 19.5527 15.4541 19.6465 15.3604C19.7403 15.2666 19.8674 15.2139 20 15.2139H27.5V12.2139H4.5V15.2139ZM6 8.21387C5.60217 8.21387 5.22076 8.37202 4.93945 8.65332C4.65815 8.93462 4.5 9.31604 4.5 9.71387V11.2139H27.5V9.71387C27.5 9.31604 27.3419 8.93463 27.0605 8.65332C26.7792 8.37202 26.3978 8.21387 26 8.21387H6Z" fill="url(#paint0_radial_40000908_134)" stroke="url(#paint1_linear_40000908_134)"/>
<defs>
<radialGradient id="paint0_radial_40000908_134" cx="0" cy="0" r="1" gradientUnits="userSpaceOnUse" gradientTransform="translate(16 5.76149) rotate(90) scale(34.7619 45.1905)">
<stop stop-color="white"/>
<stop offset="1" stop-color="white" stop-opacity="0"/>
</radialGradient>
<linearGradient id="paint1_linear_40000908_134" x1="16" y1="6.71387" x2="16" y2="26.7139" gradientUnits="userSpaceOnUse">
<stop offset="0.735221" stop-color="white" stop-opacity="0"/>
<stop offset="1" stop-color="white" stop-opacity="0.8"/>
</linearGradient>
</defs>
</svg>
