<svg width="40" height="41" viewBox="0 0 40 41" fill="none" xmlns="http://www.w3.org/2000/svg">
<path d="M33.75 6.53613H6.25C5.58696 6.53613 4.95107 6.79952 4.48223 7.26837C4.01339 7.73721 3.75 8.37309 3.75 9.03613V31.5361C3.75 32.1992 4.01339 32.8351 4.48223 33.3039C4.95107 33.7727 5.58696 34.0361 6.25 34.0361H33.75C34.413 34.0361 35.0489 33.7727 35.5178 33.3039C35.9866 32.8351 36.25 32.1992 36.25 31.5361V9.03613C36.25 8.37309 35.9866 7.73721 35.5178 7.26837C35.0489 6.79952 34.413 6.53613 33.75 6.53613ZM31.25 27.7861C31.5815 27.7861 31.8995 27.9178 32.1339 28.1522C32.3683 28.3867 32.5 28.7046 32.5 29.0361C32.5 29.3677 32.3683 29.6856 32.1339 29.92C31.8995 30.1544 31.5815 30.2861 31.25 30.2861H8.75C8.41848 30.2861 8.10054 30.1544 7.86612 29.92C7.6317 29.6856 7.5 29.3677 7.5 29.0361V11.5361C7.5 11.2046 7.6317 10.8867 7.86612 10.6522C8.10054 10.4178 8.41848 10.2861 8.75 10.2861C9.08152 10.2861 9.39946 10.4178 9.63388 10.6522C9.8683 10.8867 10 11.2046 10 11.5361V21.3674L15.45 16.8252C15.6571 16.6526 15.9144 16.5516 16.1836 16.5372C16.4528 16.5229 16.7195 16.5959 16.9438 16.7455L23.6625 21.2283L30.4453 15.5752C30.7002 15.363 31.0289 15.2608 31.3591 15.291C31.6894 15.3211 31.9941 15.4813 32.2062 15.7361C32.4184 15.991 32.5207 16.3197 32.4905 16.6499C32.4603 16.9802 32.3002 17.2849 32.0453 17.4971L24.5453 23.7471C24.3382 23.9197 24.0809 24.0207 23.8117 24.035C23.5425 24.0494 23.2758 23.9763 23.0516 23.8268L16.3328 19.3439L10 24.6221V27.7861H31.25Z" fill="#E34013"/>
</svg>
