<svg width="24" height="25" viewBox="0 0 24 25" fill="none" xmlns="http://www.w3.org/2000/svg">
<g clip-path="url(#clip0_40000908_364)">
<path d="M24 12.2861C24 5.65871 18.6274 0.286133 12 0.286133C5.37258 0.286133 0 5.65871 0 12.2861C0 18.2756 4.3882 23.2401 10.125 24.1404V15.7549H7.07812V12.2861H10.125V9.64238C10.125 6.63488 11.9166 4.97363 14.6576 4.97363C15.9701 4.97363 17.3438 5.20801 17.3438 5.20801V8.16113H15.8306C14.34 8.16113 13.875 9.08621 13.875 10.0361V12.2861H17.2031L16.6711 15.7549H13.875V24.1404C19.6118 23.2401 24 18.2756 24 12.2861Z" fill="white"/>
</g>
<defs>
<clipPath id="clip0_40000908_364">
<rect width="24" height="24" fill="white" transform="translate(0 0.286133)"/>
</clipPath>
</defs>
</svg>
