<svg width="16" height="17" viewBox="0 0 16 17" fill="none" xmlns="http://www.w3.org/2000/svg">
<path d="M15.5 8.37503V15.875C15.5 16.0408 15.4342 16.1998 15.3169 16.317C15.1997 16.4342 15.0408 16.5 14.875 16.5H10.5C10.3342 16.5 10.1753 16.4342 10.0581 16.317C9.94085 16.1998 9.875 16.0408 9.875 15.875V11.8125C9.875 11.7297 9.84208 11.6502 9.78347 11.5916C9.72487 11.533 9.64538 11.5 9.5625 11.5H6.4375C6.35462 11.5 6.27513 11.533 6.21653 11.5916C6.15792 11.6502 6.125 11.7297 6.125 11.8125V15.875C6.125 16.0408 6.05915 16.1998 5.94194 16.317C5.82473 16.4342 5.66576 16.5 5.5 16.5H1.125C0.95924 16.5 0.800269 16.4342 0.683058 16.317C0.565848 16.1998 0.5 16.0408 0.5 15.875V8.37503C0.500154 8.04357 0.63195 7.72574 0.866406 7.49144L7.11641 1.24144C7.3508 1.00719 7.66862 0.87561 8 0.87561C8.33138 0.87561 8.6492 1.00719 8.88359 1.24144L15.1336 7.49144C15.368 7.72574 15.4998 8.04357 15.5 8.37503Z" fill="#E34013"/>
</svg>
