<svg width="24" height="25" viewBox="0 0 24 25" fill="none" xmlns="http://www.w3.org/2000/svg">
<g clip-path="url(#clip0_40000908_362)">
<path d="M12 2.44707C15.2063 2.44707 15.5859 2.46113 16.8469 2.51738C18.0188 2.56895 18.6516 2.76582 19.0734 2.92988C19.6313 3.14551 20.0344 3.40801 20.4516 3.8252C20.8734 4.24707 21.1313 4.64551 21.3469 5.20332C21.5109 5.6252 21.7078 6.2627 21.7594 7.42988C21.8156 8.69551 21.8297 9.0752 21.8297 12.2768C21.8297 15.483 21.8156 15.8627 21.7594 17.1236C21.7078 18.2955 21.5109 18.9283 21.3469 19.3502C21.1313 19.908 20.8687 20.3111 20.4516 20.7283C20.0297 21.1502 19.6313 21.408 19.0734 21.6236C18.6516 21.7877 18.0141 21.9846 16.8469 22.0361C15.5813 22.0924 15.2016 22.1064 12 22.1064C8.79375 22.1064 8.41406 22.0924 7.15313 22.0361C5.98125 21.9846 5.34844 21.7877 4.92656 21.6236C4.36875 21.408 3.96563 21.1455 3.54844 20.7283C3.12656 20.3064 2.86875 19.908 2.65313 19.3502C2.48906 18.9283 2.29219 18.2908 2.24063 17.1236C2.18438 15.858 2.17031 15.4783 2.17031 12.2768C2.17031 9.07051 2.18438 8.69082 2.24063 7.42988C2.29219 6.25801 2.48906 5.6252 2.65313 5.20332C2.86875 4.64551 3.13125 4.24238 3.54844 3.8252C3.97031 3.40332 4.36875 3.14551 4.92656 2.92988C5.34844 2.76582 5.98594 2.56895 7.15313 2.51738C8.41406 2.46113 8.79375 2.44707 12 2.44707ZM12 0.286133C8.74219 0.286133 8.33438 0.300195 7.05469 0.356445C5.77969 0.412695 4.90313 0.618945 4.14375 0.914258C3.35156 1.22363 2.68125 1.63145 2.01563 2.30176C1.34531 2.96738 0.9375 3.6377 0.628125 4.4252C0.332812 5.18926 0.126563 6.06113 0.0703125 7.33613C0.0140625 8.62051 0 9.02832 0 12.2861C0 15.5439 0.0140625 15.9518 0.0703125 17.2314C0.126563 18.5064 0.332812 19.383 0.628125 20.1424C0.9375 20.9346 1.34531 21.6049 2.01563 22.2705C2.68125 22.9361 3.35156 23.3486 4.13906 23.6533C4.90313 23.9486 5.775 24.1549 7.05 24.2111C8.32969 24.2674 8.7375 24.2814 11.9953 24.2814C15.2531 24.2814 15.6609 24.2674 16.9406 24.2111C18.2156 24.1549 19.0922 23.9486 19.8516 23.6533C20.6391 23.3486 21.3094 22.9361 21.975 22.2705C22.6406 21.6049 23.0531 20.9346 23.3578 20.1471C23.6531 19.383 23.8594 18.5111 23.9156 17.2361C23.9719 15.9564 23.9859 15.5486 23.9859 12.2908C23.9859 9.03301 23.9719 8.6252 23.9156 7.34551C23.8594 6.07051 23.6531 5.19395 23.3578 4.43457C23.0625 3.6377 22.6547 2.96738 21.9844 2.30176C21.3188 1.63613 20.6484 1.22363 19.8609 0.918945C19.0969 0.623633 18.225 0.417383 16.95 0.361133C15.6656 0.300195 15.2578 0.286133 12 0.286133Z" fill="white"/>
<path d="M12 6.12207C8.59688 6.12207 5.83594 8.88301 5.83594 12.2861C5.83594 15.6893 8.59688 18.4502 12 18.4502C15.4031 18.4502 18.1641 15.6893 18.1641 12.2861C18.1641 8.88301 15.4031 6.12207 12 6.12207ZM12 16.2846C9.79219 16.2846 8.00156 14.4939 8.00156 12.2861C8.00156 10.0783 9.79219 8.2877 12 8.2877C14.2078 8.2877 15.9984 10.0783 15.9984 12.2861C15.9984 14.4939 14.2078 16.2846 12 16.2846Z" fill="white"/>
<path d="M19.8469 5.87852C19.8469 6.67539 19.2 7.31758 18.4078 7.31758C17.6109 7.31758 16.9688 6.67071 16.9688 5.87852C16.9688 5.08164 17.6156 4.43945 18.4078 4.43945C19.2 4.43945 19.8469 5.08633 19.8469 5.87852Z" fill="white"/>
</g>
<defs>
<clipPath id="clip0_40000908_362">
<rect width="24" height="24" fill="white" transform="translate(0 0.286133)"/>
</clipPath>
</defs>
</svg>
