<svg width="32" height="32" viewBox="0 0 32 32" fill="none" xmlns="http://www.w3.org/2000/svg">
<path d="M6 4.5H26C26.3978 4.5 26.7792 4.65815 27.0605 4.93945C27.3419 5.22076 27.5 5.60218 27.5 6V26C27.5 26.3978 27.3419 26.7792 27.0605 27.0605C26.7792 27.3419 26.3978 27.5 26 27.5H6C5.60218 27.5 5.22076 27.3419 4.93945 27.0605C4.65815 26.7792 4.5 26.3978 4.5 26V6C4.5 5.60218 4.65815 5.22076 4.93945 4.93945C5.22076 4.65815 5.60218 4.5 6 4.5ZM14 16.499C13.602 16.499 13.2199 16.6571 12.9385 16.9385V16.9395L10 19.8779L9.06152 18.9395V18.9385L8.95117 18.8389C8.68417 18.6201 8.34819 18.499 8 18.499C7.60203 18.499 7.21989 18.6571 6.93848 18.9385C6.65707 19.2199 6.49902 19.602 6.49902 20C6.49902 20.398 6.65707 20.7801 6.93848 21.0615L8.93848 23.0615V23.0605C9.07778 23.2 9.24368 23.3112 9.42578 23.3867C9.60781 23.4621 9.80297 23.501 10 23.501C10.197 23.501 10.3922 23.4621 10.5742 23.3867C10.7562 23.3113 10.9213 23.1999 11.0605 23.0605L11.0615 23.0615L15.0615 19.0615C15.3429 18.7801 15.501 18.398 15.501 18C15.501 17.602 15.3429 17.2199 15.0615 16.9385C14.7801 16.6571 14.398 16.499 14 16.499ZM18 18.5C17.6022 18.5 17.2208 18.6581 16.9395 18.9395C16.6581 19.2208 16.5 19.6022 16.5 20C16.5 20.3978 16.6581 20.7792 16.9395 21.0605C17.2208 21.3419 17.6022 21.5 18 21.5H24C24.3978 21.5 24.7792 21.3419 25.0605 21.0605C25.3419 20.7792 25.5 20.3978 25.5 20C25.5 19.6022 25.3419 19.2208 25.0605 18.9395C24.7792 18.6581 24.3978 18.5 24 18.5H18ZM14 8.49902C13.602 8.49902 13.2199 8.65707 12.9385 8.93848V8.93945L10 11.8779L9.06152 10.9395V10.9385L8.95117 10.8389C8.68417 10.6201 8.34819 10.499 8 10.499C7.60203 10.499 7.21989 10.6571 6.93848 10.9385C6.65707 11.2199 6.49902 11.602 6.49902 12C6.49902 12.197 6.53791 12.3922 6.61328 12.5742C6.68869 12.7563 6.79914 12.9222 6.93848 13.0615L8.93848 15.0615V15.0605C9.07779 15.2 9.24369 15.3112 9.42578 15.3867C9.6078 15.4621 9.80297 15.501 10 15.501C10.197 15.501 10.3922 15.4621 10.5742 15.3867C10.7562 15.3113 10.9213 15.1999 11.0605 15.0605L11.0615 15.0615L15.0615 11.0615C15.3429 10.7801 15.501 10.398 15.501 10C15.501 9.60203 15.3429 9.21989 15.0615 8.93848C14.7801 8.65707 14.398 8.49902 14 8.49902ZM18 10.5C17.6022 10.5 17.2208 10.6581 16.9395 10.9395C16.6581 11.2208 16.5 11.6022 16.5 12C16.5 12.3978 16.6581 12.7792 16.9395 13.0605C17.2208 13.3419 17.6022 13.5 18 13.5H24C24.3978 13.5 24.7792 13.3419 25.0605 13.0605C25.3419 12.7792 25.5 12.3978 25.5 12C25.5 11.6022 25.3419 11.2208 25.0605 10.9395C24.7792 10.6581 24.3978 10.5 24 10.5H18Z" fill="url(#paint0_radial_40000908_122)" stroke="url(#paint1_linear_40000908_122)"/>
<defs>
<radialGradient id="paint0_radial_40000908_122" cx="0" cy="0" r="1" gradientUnits="userSpaceOnUse" gradientTransform="translate(16 2.85714) rotate(90) scale(41.7143)">
<stop stop-color="white"/>
<stop offset="1" stop-color="white" stop-opacity="0"/>
</radialGradient>
<linearGradient id="paint1_linear_40000908_122" x1="16" y1="4" x2="16" y2="28" gradientUnits="userSpaceOnUse">
<stop offset="0.735221" stop-color="white" stop-opacity="0"/>
<stop offset="1" stop-color="white" stop-opacity="0.8"/>
</linearGradient>
</defs>
</svg>
