<svg width="16" height="17" viewBox="0 0 16 17" fill="none" xmlns="http://www.w3.org/2000/svg">
<path d="M8 1.78613C6.54182 1.78779 5.14383 2.36778 4.11274 3.39887C3.08165 4.42996 2.50165 5.82795 2.5 7.28613C2.5 11.9924 7.5 15.5468 7.71313 15.6955C7.7972 15.7544 7.89735 15.786 8 15.786C8.10265 15.786 8.2028 15.7544 8.28687 15.6955C8.5 15.5468 13.5 11.9924 13.5 7.28613C13.4983 5.82795 12.9184 4.42996 11.8873 3.39887C10.8562 2.36778 9.45818 1.78779 8 1.78613ZM8 5.28613C8.39556 5.28613 8.78224 5.40343 9.11114 5.62319C9.44004 5.84296 9.69638 6.15531 9.84776 6.52077C9.99913 6.88622 10.0387 7.28835 9.96157 7.67631C9.8844 8.06428 9.69392 8.42064 9.41421 8.70035C9.13451 8.98005 8.77814 9.17053 8.39018 9.2477C8.00222 9.32487 7.60009 9.28527 7.23463 9.13389C6.86918 8.98252 6.55682 8.72617 6.33706 8.39727C6.1173 8.06837 6 7.6817 6 7.28613C6 6.7557 6.21071 6.24699 6.58579 5.87192C6.96086 5.49685 7.46957 5.28613 8 5.28613Z" fill="#667085"/>
</svg>
