<svg width="40" height="41" viewBox="0 0 40 41" fill="none" xmlns="http://www.w3.org/2000/svg">
<path d="M33.75 15.2862C33.7514 12.9691 33.1671 10.6891 32.0515 8.65815C30.9359 6.6272 29.3251 4.91113 27.3688 3.66932C25.4125 2.42751 23.174 1.70025 20.8614 1.55509C18.5488 1.40992 16.2369 1.85157 14.1407 2.839C12.0444 3.82642 10.2317 5.32761 8.87088 7.20312C7.51006 9.07863 6.6453 11.2676 6.35691 13.5668C6.06852 15.866 6.36586 18.2007 7.2213 20.3542C8.07675 22.5077 9.46255 24.4101 11.25 25.8847V37.7862C11.2498 37.9994 11.3042 38.2091 11.4079 38.3953C11.5117 38.5816 11.6613 38.7382 11.8426 38.8503C12.0239 38.9624 12.2309 39.0263 12.4439 39.0359C12.6569 39.0454 12.8687 39.0004 13.0594 38.905L20 35.4425L26.9422 38.9128C27.1162 38.9961 27.3071 39.0383 27.5 39.0362C27.8315 39.0362 28.1495 38.9045 28.3839 38.6701C28.6183 38.4357 28.75 38.1178 28.75 37.7862V25.8847C30.314 24.5966 31.5734 22.9783 32.4378 21.1458C33.3023 19.3134 33.7504 17.3123 33.75 15.2862ZM8.75 15.2862C8.75 13.0612 9.4098 10.8861 10.646 9.03608C11.8821 7.18602 13.6391 5.74408 15.6948 4.8926C17.7505 4.04111 20.0125 3.81832 22.1948 4.25241C24.3771 4.68649 26.3816 5.75795 27.955 7.33129C29.5283 8.90463 30.5998 10.9092 31.0338 13.0915C31.4679 15.2738 31.2451 17.5358 30.3936 19.5914C29.5422 21.6471 28.1002 23.4041 26.2502 24.6403C24.4001 25.8764 22.225 26.5362 20 26.5362C17.0173 26.5329 14.1578 25.3466 12.0487 23.2375C9.93964 21.1285 8.75331 18.2689 8.75 15.2862ZM11.25 15.2862C11.25 13.5557 11.7632 11.8639 12.7246 10.425C13.6861 8.98607 15.0527 7.86456 16.6515 7.2023C18.2504 6.54003 20.0097 6.36675 21.707 6.70437C23.4044 7.04199 24.9635 7.87535 26.1872 9.09906C27.4109 10.3228 28.2443 11.8819 28.5819 13.5792C28.9195 15.2765 28.7462 17.0359 28.084 18.6347C27.4217 20.2336 26.3002 21.6001 24.8612 22.5616C23.4223 23.5231 21.7306 24.0362 20 24.0362C17.6801 24.0338 15.456 23.1111 13.8156 21.4707C12.1752 19.8303 11.2525 17.6061 11.25 15.2862Z" fill="#E34013"/>
</svg>
