<svg width="40" height="41" viewBox="0 0 40 41" fill="none" xmlns="http://www.w3.org/2000/svg">
<path d="M31.25 11.5362H25.0312C24.5766 11.5096 16.6531 10.9518 9.10781 4.62368C8.74345 4.31767 8.29932 4.122 7.82761 4.05965C7.35589 3.99729 6.87617 4.07085 6.44482 4.27168C6.01346 4.47251 5.64837 4.79227 5.39244 5.1934C5.1365 5.59453 5.00036 6.06037 5 6.53618V31.5362C5.00006 32.0121 5.13599 32.4782 5.39181 32.8795C5.64762 33.2809 6.01269 33.6009 6.44411 33.8019C6.87552 34.0029 7.35536 34.0766 7.82722 34.0143C8.29908 33.952 8.74335 33.7563 9.10781 33.4502C15.0094 28.5002 21.1391 27.0815 23.75 26.6846V31.6409C23.7495 32.0528 23.8508 32.4585 24.0448 32.8219C24.2389 33.1853 24.5198 33.4951 24.8625 33.7237L26.5812 34.869C26.9135 35.0907 27.294 35.2296 27.6909 35.2741C28.0878 35.3185 28.4896 35.2672 28.8627 35.1245C29.2357 34.9817 29.5691 34.7517 29.8349 34.4536C30.1008 34.1555 30.2913 33.7981 30.3906 33.4112L32.2297 26.4799C34.1308 26.2464 35.8706 25.2943 37.0921 23.8189C38.3136 22.3435 38.9244 20.4566 38.7991 18.5453C38.6738 16.6339 37.8219 14.843 36.4182 13.5397C35.0145 12.2364 33.1654 11.5195 31.25 11.5362ZM27.9687 32.769V32.7862L26.25 31.6409V26.5362H29.625L27.9687 32.769ZM31.25 24.0362H26.25V14.0362H31.25C32.5761 14.0362 33.8478 14.563 34.7855 15.5007C35.7232 16.4383 36.25 17.7101 36.25 19.0362C36.25 20.3623 35.7232 21.634 34.7855 22.5717C33.8478 23.5094 32.5761 24.0362 31.25 24.0362Z" fill="#E34013"/>
</svg>
