<svg width="40" height="41" viewBox="0 0 40 41" fill="none" xmlns="http://www.w3.org/2000/svg">
<path d="M38.1625 9.66121C37.9825 9.54889 37.777 9.48423 37.5651 9.47329C37.3533 9.46236 37.1421 9.50552 36.9516 9.59871C30.2438 12.88 25.4531 11.3425 20.3891 9.72058C15.0625 8.02527 9.5625 6.26746 1.95156 9.98308C1.74137 10.0857 1.56419 10.2453 1.44017 10.4436C1.31615 10.6419 1.25026 10.871 1.25 11.105V29.844C1.24997 30.0561 1.3039 30.2647 1.40673 30.4502C1.50955 30.6357 1.65787 30.792 1.83775 30.9043C2.01762 31.0167 2.22313 31.0815 2.43493 31.0925C2.64673 31.1035 2.85785 31.0605 3.04844 30.9675C9.75625 27.6862 14.5469 29.2237 19.6187 30.8456C22.625 31.8065 25.6875 32.7862 29.15 32.7862C31.8203 32.7862 34.7328 32.205 38.0422 30.5893C38.2524 30.4867 38.4296 30.3272 38.5536 30.1288C38.6776 29.9305 38.7435 29.7014 38.7438 29.4675V10.7284C38.7456 10.5158 38.6932 10.3062 38.5915 10.1194C38.4898 9.93267 38.3422 9.77496 38.1625 9.66121ZM7.5 24.0362C7.5 24.3677 7.3683 24.6857 7.13388 24.9201C6.89946 25.1545 6.58152 25.2862 6.25 25.2862C5.91848 25.2862 5.60054 25.1545 5.36612 24.9201C5.1317 24.6857 5 24.3677 5 24.0362V14.0362C5 13.7047 5.1317 13.3867 5.36612 13.1523C5.60054 12.9179 5.91848 12.7862 6.25 12.7862C6.58152 12.7862 6.89946 12.9179 7.13388 13.1523C7.3683 13.3867 7.5 13.7047 7.5 14.0362V24.0362ZM20 25.2862C19.0111 25.2862 18.0444 24.993 17.2221 24.4436C16.3999 23.8941 15.759 23.1133 15.3806 22.1996C15.0022 21.286 14.9031 20.2807 15.0961 19.3108C15.289 18.3408 15.7652 17.4499 16.4645 16.7507C17.1637 16.0514 18.0546 15.5752 19.0245 15.3823C19.9945 15.1894 20.9998 15.2884 21.9134 15.6668C22.827 16.0452 23.6079 16.6861 24.1573 17.5084C24.7068 18.3306 25 19.2973 25 20.2862C25 21.6123 24.4732 22.8841 23.5355 23.8217C22.5979 24.7594 21.3261 25.2862 20 25.2862ZM35 26.5362C35 26.8677 34.8683 27.1857 34.6339 27.4201C34.3995 27.6545 34.0815 27.7862 33.75 27.7862C33.4185 27.7862 33.1005 27.6545 32.8661 27.4201C32.6317 27.1857 32.5 26.8677 32.5 26.5362V16.5362C32.5 16.2047 32.6317 15.8867 32.8661 15.6523C33.1005 15.4179 33.4185 15.2862 33.75 15.2862C34.0815 15.2862 34.3995 15.4179 34.6339 15.6523C34.8683 15.8867 35 16.2047 35 16.5362V26.5362Z" fill="#E34013"/>
</svg>
