<svg width="24" height="25" viewBox="0 0 24 25" fill="none" xmlns="http://www.w3.org/2000/svg">
<path d="M21.1744 10.5686C20.8209 10.1992 20.4553 9.81857 20.3175 9.48389C20.19 9.17732 20.1825 8.6692 20.175 8.17701C20.1609 7.26201 20.1459 6.22514 19.425 5.5042C18.7041 4.78326 17.6672 4.76826 16.7522 4.7542C16.26 4.7467 15.7519 4.7392 15.4453 4.6117C15.1116 4.47389 14.73 4.10826 14.3606 3.75482C13.7137 3.13326 12.9788 2.4292 12 2.4292C11.0212 2.4292 10.2872 3.13326 9.63937 3.75482C9.27 4.10826 8.88938 4.47389 8.55469 4.6117C8.25 4.7392 7.74 4.7467 7.24781 4.7542C6.33281 4.76826 5.29594 4.78326 4.575 5.5042C3.85406 6.22514 3.84375 7.26201 3.825 8.17701C3.8175 8.6692 3.81 9.17732 3.6825 9.48389C3.54469 9.81764 3.17906 10.1992 2.82562 10.5686C2.20406 11.2154 1.5 11.9504 1.5 12.9292C1.5 13.9079 2.20406 14.642 2.82562 15.2898C3.17906 15.6592 3.54469 16.0398 3.6825 16.3745C3.81 16.6811 3.8175 17.1892 3.825 17.6814C3.83906 18.5964 3.85406 19.6333 4.575 20.3542C5.29594 21.0751 6.33281 21.0901 7.24781 21.1042C7.74 21.1117 8.24813 21.1192 8.55469 21.2467C8.88844 21.3845 9.27 21.7501 9.63937 22.1036C10.2863 22.7251 11.0212 23.4292 12 23.4292C12.9788 23.4292 13.7128 22.7251 14.3606 22.1036C14.73 21.7501 15.1106 21.3845 15.4453 21.2467C15.7519 21.1192 16.26 21.1117 16.7522 21.1042C17.6672 21.0901 18.7041 21.0751 19.425 20.3542C20.1459 19.6333 20.1609 18.5964 20.175 17.6814C20.1825 17.1892 20.19 16.6811 20.3175 16.3745C20.4553 16.0408 20.8209 15.6592 21.1744 15.2898C21.7959 14.6429 22.5 13.9079 22.5 12.9292C22.5 11.9504 21.7959 11.2164 21.1744 10.5686ZM16.2806 11.2098L11.0306 16.4598C10.961 16.5296 10.8783 16.5849 10.7872 16.6226C10.6962 16.6604 10.5986 16.6798 10.5 16.6798C10.4014 16.6798 10.3038 16.6604 10.2128 16.6226C10.1217 16.5849 10.039 16.5296 9.96937 16.4598L7.71937 14.2098C7.57864 14.0691 7.49958 13.8782 7.49958 13.6792C7.49958 13.4802 7.57864 13.2893 7.71937 13.1486C7.86011 13.0078 8.05098 12.9288 8.25 12.9288C8.44902 12.9288 8.63989 13.0078 8.78063 13.1486L10.5 14.8689L15.2194 10.1486C15.2891 10.0789 15.3718 10.0236 15.4628 9.9859C15.5539 9.94819 15.6515 9.92878 15.75 9.92878C15.8485 9.92878 15.9461 9.94819 16.0372 9.9859C16.1282 10.0236 16.2109 10.0789 16.2806 10.1486C16.3503 10.2183 16.4056 10.301 16.4433 10.392C16.481 10.4831 16.5004 10.5807 16.5004 10.6792C16.5004 10.7777 16.481 10.8753 16.4433 10.9664C16.4056 11.0574 16.3503 11.1401 16.2806 11.2098Z" fill="#E34013"/>
</svg>
