<svg width="32" height="32" viewBox="0 0 32 32" fill="none" xmlns="http://www.w3.org/2000/svg">
<path d="M4 10.5002C4.13261 10.5002 4.25975 10.553 4.35352 10.6467C4.44722 10.7405 4.5 10.8677 4.5 11.0002V26.5002H24C24.1326 26.5002 24.2597 26.553 24.3535 26.6467C24.4472 26.7405 24.5 26.8677 24.5 27.0002C24.5 27.1328 24.4472 27.26 24.3535 27.3538C24.2598 27.4475 24.1326 27.5002 24 27.5002H4C3.86744 27.5002 3.74024 27.4475 3.64648 27.3538C3.55276 27.26 3.50005 27.1328 3.5 27.0002V11.0002C3.5 10.8677 3.55278 10.7405 3.64648 10.6467C3.74025 10.553 3.86739 10.5002 4 10.5002ZM22.0977 6.50903C22.1946 6.52834 22.2836 6.57586 22.3535 6.64575L28.3545 12.6467C28.4008 12.6931 28.4378 12.7483 28.4629 12.8088C28.488 12.8694 28.501 12.9346 28.501 13.0002C28.501 13.0659 28.488 13.131 28.4629 13.1917C28.4378 13.2523 28.4009 13.3074 28.3545 13.3538H28.3535L22.3535 19.3538C22.2836 19.4238 22.1947 19.4721 22.0977 19.4915C22.0007 19.5108 21.9 19.501 21.8086 19.4631C21.7172 19.4253 21.6389 19.3609 21.584 19.2786C21.529 19.1963 21.4999 19.0992 21.5 19.0002V13.5002H20.625C18.075 13.4996 15.5972 14.3463 13.5811 15.9075C11.5648 17.4688 10.1248 19.6562 9.4873 22.1252C9.45414 22.2537 9.37106 22.3635 9.25684 22.4309C9.1425 22.4983 9.00548 22.5178 8.87695 22.4846C8.74863 22.4514 8.63864 22.3683 8.57129 22.2542C8.50399 22.1399 8.48454 22.0036 8.51758 21.8752C9.2094 19.1909 10.775 16.8127 12.9668 15.1155C15.0215 13.5244 17.5174 12.6156 20.1055 12.51L20.625 12.5002H21.5V6.99927C21.5 6.90056 21.5292 6.80406 21.584 6.72192C21.6389 6.63963 21.7172 6.57523 21.8086 6.53735C21.9 6.49948 22.0006 6.48971 22.0977 6.50903Z" fill="url(#paint0_radial_40000908_110)" stroke="url(#paint1_linear_40000908_110)"/>
<defs>
<radialGradient id="paint0_radial_40000908_110" cx="0" cy="0" r="1" gradientUnits="userSpaceOnUse" gradientTransform="translate(16.0004 4.95161) rotate(90) scale(38.2395 45.1918)">
<stop stop-color="white"/>
<stop offset="1" stop-color="white" stop-opacity="0"/>
</radialGradient>
<linearGradient id="paint1_linear_40000908_110" x1="16.0004" y1="5.99927" x2="16.0004" y2="28.0001" gradientUnits="userSpaceOnUse">
<stop offset="0.735221" stop-color="white" stop-opacity="0"/>
<stop offset="1" stop-color="white" stop-opacity="0.8"/>
</linearGradient>
</defs>
</svg>
