<svg width="24" height="25" viewBox="0 0 24 25" fill="none" xmlns="http://www.w3.org/2000/svg">
<g clip-path="url(#clip0_40000908_363)">
<path d="M17.0725 0.286133H13.0278V16.6339C13.0278 18.5818 11.4722 20.1818 9.53626 20.1818C7.60034 20.1818 6.04469 18.5818 6.04469 16.6339C6.04469 14.7209 7.56577 13.1557 9.43257 13.0861V8.9818C5.31872 9.05133 2 12.4253 2 16.6339C2 20.8775 5.38786 24.2861 9.57085 24.2861C13.7538 24.2861 17.1416 20.8427 17.1416 16.6339V8.25133C18.6627 9.3644 20.5295 10.0253 22.5 10.0601V5.9557C19.4579 5.85135 17.0725 3.347 17.0725 0.286133Z" fill="white"/>
</g>
<defs>
<clipPath id="clip0_40000908_363">
<rect width="24" height="24" fill="white" transform="translate(0 0.286133)"/>
</clipPath>
</defs>
</svg>
