<svg width="32" height="33" viewBox="0 0 32 33" fill="none" xmlns="http://www.w3.org/2000/svg">
<path d="M7 5.21387H24C24.1326 5.21387 24.2597 5.26658 24.3535 5.36035C24.4473 5.45412 24.5 5.58126 24.5 5.71387C24.5 5.84648 24.4473 5.97362 24.3535 6.06738C24.2597 6.16115 24.1326 6.21387 24 6.21387H7C6.60217 6.21387 6.22076 6.37202 5.93945 6.65332C5.65815 6.93462 5.5 7.31604 5.5 7.71387C5.5 8.11169 5.65815 8.49311 5.93945 8.77441C6.22076 9.05572 6.60217 9.21387 7 9.21387H27C27.3978 9.21387 27.7792 9.37202 28.0605 9.65332C28.3419 9.93463 28.5 10.316 28.5 10.7139V24.7139C28.5 25.1117 28.3419 25.4931 28.0605 25.7744C27.7792 26.0557 27.3978 26.2139 27 26.2139H7C6.33696 26.2139 5.70126 25.9503 5.23242 25.4814C4.76358 25.0126 4.5 24.3769 4.5 23.7139V7.71387C4.5 7.05083 4.76358 6.41513 5.23242 5.94629C5.70126 5.47745 6.33696 5.21387 7 5.21387ZM23.2656 15.3662C22.9002 15.2148 22.4973 15.1748 22.1094 15.252C21.7216 15.3292 21.3656 15.5202 21.0859 15.7998C20.8063 16.0794 20.6153 16.4354 20.5381 16.8232C20.4609 17.2112 20.501 17.614 20.6523 17.9795C20.8037 18.3448 21.0599 18.6572 21.3887 18.877C21.7176 19.0967 22.1044 19.2139 22.5 19.2139C23.0304 19.2139 23.539 19.003 23.9141 18.6279C24.2891 18.2529 24.5 17.7443 24.5 17.2139C24.5 16.8183 24.3828 16.4314 24.1631 16.1025C23.9434 15.7737 23.6309 15.5176 23.2656 15.3662Z" fill="url(#paint0_radial_40000908_146)" stroke="url(#paint1_linear_40000908_146)"/>
<defs>
<radialGradient id="paint0_radial_40000908_146" cx="0" cy="0" r="1" gradientUnits="userSpaceOnUse" gradientTransform="translate(16.5 3.66625) rotate(90) scale(38.2381 43.4524)">
<stop stop-color="white"/>
<stop offset="1" stop-color="white" stop-opacity="0"/>
</radialGradient>
<linearGradient id="paint1_linear_40000908_146" x1="16.5" y1="4.71387" x2="16.5" y2="26.7139" gradientUnits="userSpaceOnUse">
<stop offset="0.735221" stop-color="white" stop-opacity="0"/>
<stop offset="1" stop-color="white" stop-opacity="0.8"/>
</linearGradient>
</defs>
</svg>
